<svg width="60" height="60" viewBox="0 0 60 60" fill="none" xmlns="http://www.w3.org/2000/svg">
<circle cx="30" cy="30" r="30" fill="#E66969"/>
<path d="M27.6994 27.1136C29.1792 27.1136 30.3788 25.914 30.3788 24.4342C30.3788 22.9544 29.1792 21.7548 27.6994 21.7548C26.2196 21.7548 25.02 22.9544 25.02 24.4342C25.02 25.914 26.2196 27.1136 27.6994 27.1136Z" fill="#FAF0D7"/>
<path d="M49.6927 34.2958C48.4275 33.105 46.8273 32.3235 45.0782 32.1002V18.48C45.0782 17.0287 44.4828 15.7262 43.5525 14.7586C42.5849 13.7911 41.2824 13.2328 39.8311 13.2328H18.2471C16.7958 13.2328 15.4933 13.8283 14.5258 14.7586C13.5582 15.7262 13 17.0287 13 18.48V35.6355V37.2357V40.6966C13 42.1479 13.5954 43.4504 14.5258 44.418C15.4933 45.3855 16.7958 45.9437 18.2471 45.9437H39.124C40.501 47.0601 42.2128 47.7672 44.1107 47.7672C46.3063 47.7672 48.2786 46.8741 49.6927 45.4599C51.1069 44.0458 52 42.0735 52 39.8779C52 37.6823 51.1069 35.7099 49.6927 34.2958ZM14.9723 18.48C14.9723 17.5869 15.3445 16.7682 15.9399 16.1727C16.5353 15.5773 17.354 15.2052 18.2471 15.2052H39.8311C40.7242 15.2052 41.5429 15.5773 42.1384 16.1727C42.7338 16.7682 43.1059 17.5869 43.1059 18.48V30.0907L37.5983 24.6203C37.2261 24.2481 36.5935 24.2109 36.1842 24.6203L27.8855 32.9561L22.2662 27.2996C21.8941 26.9275 21.2615 26.8903 20.8521 27.2996L14.9723 33.2538V18.48ZM18.2099 44.0086V43.9714C17.3168 43.9714 16.4981 43.5993 15.9027 43.0038C15.3445 42.4084 14.9723 41.5897 14.9723 40.6966V37.2357V36.0449L21.5964 29.4208L27.2156 35.0401C27.5878 35.4122 28.2204 35.4122 28.6298 35.0401L36.9284 26.7042L42.3616 32.1746C42.25 32.2119 42.1384 32.2491 42.0267 32.2863C41.8779 32.3235 41.729 32.3607 41.5429 32.4351C41.3941 32.4724 41.2452 32.5468 41.0964 32.584C40.9847 32.6212 40.9103 32.6584 40.7987 32.7329C40.6498 32.8073 40.5382 32.8445 40.4265 32.9189C40.2405 33.0306 40.0544 33.1422 39.8683 33.2538C39.7567 33.3283 39.6823 33.3655 39.5706 33.4399C39.4962 33.4771 39.459 33.5143 39.3845 33.5516C39.0496 33.7748 38.7519 34.0353 38.4914 34.333C37.0773 35.7472 36.1842 37.7195 36.1842 39.9151C36.1842 40.4733 36.2586 40.9943 36.3702 41.5525C36.4074 41.7014 36.4447 41.813 36.4819 41.9619C36.5935 42.334 36.7052 42.7061 36.854 43.0783V43.1155C37.0029 43.4132 37.1517 43.7481 37.3378 44.0086H18.2099ZM48.2414 44.0458C47.1622 45.125 45.7109 45.7577 44.0735 45.7577C42.5105 45.7577 41.0592 45.125 40.0172 44.1203C39.8683 43.9714 39.7195 43.7853 39.5706 43.6365C39.459 43.5248 39.3473 43.376 39.2357 43.2643C39.0868 43.0783 38.9752 42.855 38.8635 42.6317C38.7891 42.4829 38.7147 42.3712 38.6403 42.2224C38.5658 42.0363 38.4914 41.813 38.4542 41.5897C38.417 41.4409 38.3426 41.2548 38.3053 41.1059C38.2309 40.7338 38.1937 40.3245 38.1937 39.9151C38.1937 38.2777 38.8636 36.8264 39.9055 35.7472C40.9847 34.668 42.4361 34.0353 44.0735 34.0353C45.7109 34.0353 47.1622 34.7052 48.2414 35.7472C49.3206 36.7891 49.9532 38.2777 49.9532 39.9151C49.9532 41.5153 49.2834 42.9666 48.2414 44.0458Z" fill="#FAF0D7"/>
<path d="M47.3111 38.8731H45.041V36.6031C45.041 36.0449 44.5945 35.5983 44.0363 35.5983C43.478 35.5983 43.0315 36.0449 43.0315 36.6031V38.8731H40.7614C40.2032 38.8731 39.7567 39.3197 39.7567 39.8779C39.7567 40.4361 40.2032 40.8827 40.7614 40.8827H43.0315V43.1527C43.0315 43.7109 43.478 44.1575 44.0363 44.1575C44.5945 44.1575 45.041 43.7109 45.041 43.1527V40.8827H47.3111C47.8693 40.8827 48.3158 40.4361 48.3158 39.8779C48.3158 39.3197 47.8693 38.8731 47.3111 38.8731Z" fill="#FAF0D7"/>
</svg>
