<svg width="60" height="60" fill="none" xmlns="http://www.w3.org/2000/svg"><circle cx="30" cy="30" r="30" fill="#E66969"/><path d="M27.7 27.114a2.68 2.68 0 100-5.36 2.68 2.68 0 000 5.36z" fill="#FAF0D7"/><path d="M49.693 34.296a8.251 8.251 0 00-4.615-2.196V18.48c0-1.451-.595-2.754-1.526-3.721a5.2 5.2 0 00-3.72-1.526H18.246c-1.451 0-2.754.595-3.721 1.526A5.2 5.2 0 0013 18.48V40.697c0 1.45.595 2.753 1.526 3.721a5.2 5.2 0 003.721 1.526h20.877c1.377 1.116 3.089 1.823 4.987 1.823a7.872 7.872 0 005.582-2.307A7.872 7.872 0 0052 39.878a7.872 7.872 0 00-2.307-5.582zM14.973 18.48c0-.893.371-1.712.967-2.307a3.265 3.265 0 012.307-.968h21.584c.893 0 1.712.372 2.307.968.596.595.968 1.414.968 2.307v11.61l-5.508-5.47a1 1 0 00-1.414 0l-8.298 8.336-5.62-5.656a1 1 0 00-1.414 0l-5.88 5.954V18.48zm3.237 25.529v-.038a3.265 3.265 0 01-2.307-.967 3.396 3.396 0 01-.93-2.307v-4.652l6.623-6.624 5.62 5.62c.372.371 1.004.371 1.414 0l8.298-8.337 5.434 5.47-.335.112c-.15.038-.298.075-.484.15-.149.036-.298.11-.447.148a1.11 1.11 0 00-.297.149c-.15.074-.26.111-.373.186l-.558.335c-.111.074-.186.111-.297.186-.075.037-.112.074-.186.112a4.488 4.488 0 00-.894.781 7.873 7.873 0 00-2.307 5.582c0 .558.075 1.08.186 1.638.037.148.075.26.112.409.111.372.223.744.372 1.116v.037c.149.298.298.633.484.894H18.21zm30.031.037a5.817 5.817 0 01-4.167 1.712 5.87 5.87 0 01-4.057-1.638c-.149-.149-.298-.335-.446-.483-.112-.112-.224-.261-.335-.373-.15-.186-.26-.409-.372-.632-.075-.15-.15-.26-.224-.41a3.139 3.139 0 01-.186-.632c-.037-.15-.111-.335-.149-.484a6.16 6.16 0 01-.111-1.19c0-1.638.67-3.09 1.712-4.169a5.817 5.817 0 014.168-1.712c1.637 0 3.088.67 4.167 1.712 1.08 1.042 1.712 2.53 1.712 4.168 0 1.6-.67 3.052-1.712 4.13z" fill="#FAF0D7"/><path d="M47.311 38.873h-2.27v-2.27a1 1 0 00-1.005-1.005 1 1 0 00-1.005 1.005v2.27h-2.27a1 1 0 00-1.004 1.005 1 1 0 001.004 1.005h2.27v2.27a1 1 0 001.005 1.005 1 1 0 001.005-1.005v-2.27h2.27a1 1 0 001.005-1.005 1 1 0 00-1.005-1.005z" fill="#FAF0D7"/></svg>